<?xml version="1.0" encoding="iso-8859-1"?>
<!-- Generator: Adobe Illustrator 19.0.0, SVG Export Plug-In . SVG Version: 6.00 Build 0)  -->
<svg version="1.1" id="Layer_1" xmlns="http://www.w3.org/2000/svg" xmlns:xlink="http://www.w3.org/1999/xlink" x="0px" y="0px"
	 viewBox="0 0 512 512" style="enable-background:new 0 0 512 512;" xml:space="preserve">
<path style="fill:#77D7ED;" d="M511.998,255.406c0.144,64.931-23.883,124.266-63.632,169.489
	c-8.583,9.771-17.908,18.886-27.869,27.247c-42.413,35.63-96.564,57.736-155.832,59.713c-2.676,0.089-5.374,0.133-8.072,0.144
	c-2.842,0.011-5.663-0.033-8.483-0.122c-59.157-1.788-113.296-23.661-155.788-59.046c-9.971-8.294-19.308-17.343-27.913-27.047
	c-39.949-45.045-64.265-104.269-64.408-169.2C-0.32,115.195,114.03,0.323,255.418,0.001
	C396.793-0.321,511.676,114.019,511.998,255.406"/>
<path style="fill:#EB305B;" d="M420.493,452.142c-42.414,35.63-96.564,57.736-155.832,59.713c-2.676,0.089-5.374,0.133-8.072,0.144
	c-2.842,0.011-5.663-0.033-8.483-0.122c-59.157-1.788-113.296-23.661-155.788-59.046c23.594-24.349,52.573-43.458,85.005-55.438
	c1.732-0.644,3.475-1.266,5.23-1.865c1.743-0.6,3.509-1.177,5.274-1.732c5.285-1.677,10.659-3.153,16.1-4.441
	c14.256-3.364,29.024-5.396,44.179-5.951c2.687-0.111,5.385-0.155,8.105-0.167c2.831-0.011,5.651,0.033,8.449,0.144
	c20.685,0.7,40.693,4.153,59.646,10.004c1.776,0.533,3.542,1.099,5.296,1.688s3.509,1.199,5.241,1.832
	C367.488,408.751,396.677,427.804,420.493,452.142z"/>
<polyline style="fill:#4F4A43;" points="371.34,211.959 357.561,194.394 360.337,160.807 375.326,166.914 378.379,193.006 
	374.771,204.942 "/>
<path style="fill:#D32654;" d="M230.297,384.757l-11.947,14.645c0,0-63.077,25.726-97.463,74.058
	c-10.004-6.218-19.553-13.124-28.568-20.63c29.878-30.822,68.373-53.273,111.608-63.477
	C212.543,387.322,221.337,385.778,230.297,384.757z"/>
<path style="fill:#E0B775;" d="M329.603,395.072c-9.526,31.622-38.872,54.661-73.603,54.661c-34.553,0-63.787-22.817-73.447-54.205
	c6.973-2.398,14.112-4.452,21.373-6.173c14.256-3.364,29.024-5.396,44.179-5.951c2.687-0.111,5.385-0.155,8.105-0.167
	c2.831-0.011,5.651,0.033,8.449,0.144C287.289,384.146,309.096,388.199,329.603,395.072z"/>
<path style="fill:#D32654;" d="M334.844,396.904c-5.03,16.51-15.4,31.333-29.246,41.792c-14.379,10.848-31.533,16.588-49.598,16.588
	c-17.976,0-35.053-5.685-49.387-16.444c-13.801-10.359-24.194-25.06-29.29-41.448c1.732-0.644,3.475-1.266,5.23-1.865
	c1.743-0.6,3.509-1.177,5.274-1.732l0.033,0.1c9.26,30.078,36.64,50.286,68.14,50.286c31.211,0,59.291-20.852,68.284-50.708
	l0.022-0.089c1.776,0.533,3.542,1.099,5.296,1.688S333.112,396.271,334.844,396.904z"/>
<g>
	<path style="fill:#EFC881;" d="M187.235,242.861c0-17.945-16.76-32.492-37.435-32.492s-37.435,14.547-37.435,32.492
		s16.76,45.1,37.435,45.1S187.235,260.806,187.235,242.861"/>
	<path style="fill:#EFC881;" d="M399.638,242.861c0-17.945-16.76-32.492-37.435-32.492s-37.435,14.547-37.435,32.492
		s16.76,45.1,37.435,45.1S399.638,260.806,399.638,242.861"/>
</g>
<g>
	<path style="fill:#E0B775;" d="M385.07,248.223c0-10.589-6.462-19.174-14.434-19.174c-7.972,0-14.434,8.584-14.434,19.174
		s6.462,11.957,14.434,11.957C378.608,260.18,385.07,258.812,385.07,248.223z"/>
	<path style="fill:#E0B775;" d="M155.789,248.223c0-10.589-6.462-19.174-14.434-19.174s-14.434,8.584-14.434,19.174
		s6.462,11.957,14.434,11.957C149.327,260.18,155.789,258.812,155.789,248.223z"/>
</g>
<path style="fill:#F9D387;" d="M371.34,211.959V278.7c0,12.602-1.654,24.793-4.741,36.296c-1.133,4.23-2.443,8.35-3.964,12.369
	c-12.524,33.676-37.706,60.101-68.995,72.037c-0.733,0.289-1.466,0.566-2.198,0.822c-11.17,4.008-23.083,6.151-35.441,6.151
	c-12.369,0-24.282-2.143-35.441-6.151c-0.744-0.255-1.477-0.533-2.21-0.822c-23.239-8.86-43.091-25.715-56.915-47.61
	c-4.797-7.583-8.86-15.766-12.08-24.427c-1.521-4.019-2.831-8.139-3.953-12.369c-3.098-11.503-4.752-23.694-4.752-36.296v-66.741
	c0-1.677,0.033-3.342,0.089-4.996c0.755-21.807,6.451-42.203,15.9-59.868c7.073-13.268,16.266-24.993,27.058-34.608
	c19.775-17.643,44.923-28.202,72.303-28.202c31.844,0,60.678,14.29,81.552,37.406c19.886,22.006,32.554,52.018,33.687,85.294
	C371.306,208.639,371.34,210.294,371.34,211.959"/>
<g>
	<path style="fill:#EFC881;" d="M161.097,309.145l-0.155-1.189c-1.619-12.394-8.703-23.084-18.896-28.517l-1.388-0.741
		c0,12.608,1.651,24.795,4.744,36.301c1.127,4.221,2.438,8.343,3.958,12.361c12.531,33.675,37.709,60.11,68.997,72.036
		c-6.144-27.8-20.859-50.567-39.985-62.658C169.108,330.881,162.623,320.835,161.097,309.145z"/>
	<path style="fill:#EFC881;" d="M351.061,307.957l-0.155,1.189c-1.527,11.689-8.011,21.737-17.276,27.595
		c-19.125,12.091-33.84,34.858-39.985,62.658c31.287-11.926,56.466-38.361,68.997-72.036c1.521-4.019,2.831-8.14,3.958-12.361
		c3.093-11.505,4.744-23.693,4.744-36.301l-1.389,0.741C359.764,284.872,352.68,295.562,351.061,307.957z"/>
</g>
<g>
	<path style="fill:#68635B;" d="M371.352,211.948c6.284-16.577-4.674-36.03-4.674-36.03c-19.952-19.952-56.026,10.426-95.997,10.426
		c-20.408,0-37.351-8.971-49.031-17.754v-0.011c-11.203-8.416-17.587-16.655-17.587-16.655c0,25.537-63.41,60.035-63.41,60.035
		s-3.686-52.74-2.098-81.13c1.588-28.391,45.145-18.342,45.145-18.342s-22.939-36.063,29.246-52.718
		c7.128-2.276,14.8-4.075,22.806-5.318c50.597-7.939,114.684,5.885,141.52,58.613C408.014,173.453,372.15,211.126,371.352,211.948z"
		/>
	<polyline style="fill:#68635B;" points="282.683,273.204 282.683,273.193 277.13,273.193 277.13,273.204 282.683,273.204 	"/>
</g>
<polyline style="fill:#719494;" points="282.683,273.193 279.895,273.193 279.902,273.204 282.683,273.204 282.683,273.193 "/>
<path style="fill:#EFC881;" d="M197.154,168.39c0,0-48.11,46.822-56.504,91.234v-47.666c0-1.677,0.033-3.342,0.089-4.996
	c0.755-21.807,6.451-42.203,15.9-59.868L197.154,168.39z"/>
<polyline style="fill:#68635B;" points="234.871,273.204 234.871,273.193 229.32,273.193 229.32,273.204 234.871,273.204 "/>
<g>
	<path style="fill:#4D4D4D;" d="M221.648,168.579c-11.203-8.416-17.587-16.655-17.587-16.655c0,25.537-63.41,60.035-63.41,60.035
		s-3.686-52.74-2.098-81.13c1.588-28.391,45.145-18.342,45.145-18.342s-22.939-36.063,29.246-52.718
		c7.128-2.276,14.8-4.075,22.806-5.318C235.749,54.45,170.729,90.513,221.648,168.579z"/>
	<path style="fill:#4D4D4D;" d="M314.653,239.491v22.512c0,4.213-3.408,7.62-7.619,7.62c-4.063,0-7.381-3.179-7.6-7.193
		c-0.01-0.14-0.01-0.289-0.01-0.427v-22.512c0-4.213,3.408-7.62,7.61-7.62c2.105,0,4.014,0.855,5.384,2.225
		c0.984,0.984,1.699,2.235,2.026,3.626C314.584,238.289,314.653,238.885,314.653,239.491"/>
	<path style="fill:#4D4D4D;" d="M204.961,269.622c-4.206,0-7.616-3.41-7.616-7.617v-22.518c0-4.206,3.41-7.617,7.616-7.617
		s7.617,3.41,7.617,7.617v22.518C212.577,266.212,209.168,269.622,204.961,269.622"/>
</g>
<g>
	<path style="fill:#68635B;" d="M331.095,211.886c0-10.22-8.285-18.506-18.506-18.506s-18.506,8.285-18.506,18.506
		C304.305,201.665,320.875,201.665,331.095,211.886z"/>
	<path style="fill:#68635B;" d="M217.915,211.886c0-10.22-8.285-18.506-18.506-18.506s-18.506,8.285-18.506,18.506
		C191.124,201.665,207.694,201.665,217.915,211.886z"/>
</g>
<g>
	<path style="fill:#666666;" d="M314.648,239.491v22.512c0,4.213-3.408,7.62-7.62,7.62c-4.063,0-7.38-3.179-7.6-7.193
		c8.524-8.763,12.845-18.11,15.011-24.707C314.578,238.289,314.648,238.885,314.648,239.491"/>
	<path style="fill:#666666;" d="M212.571,239.491v22.512c0,4.213-3.408,7.62-7.62,7.62c-4.064,0-7.381-3.179-7.6-7.193
		c8.524-8.763,12.845-18.11,15.011-24.707C212.501,238.289,212.571,238.885,212.571,239.491"/>
</g>
<path style="fill:#E0B775;" d="M274.089,293.124c0-0.567-0.114-1.121-0.331-1.658c-2.302-5.685-3.931-11.611-3.882-17.743
	c0.006-0.685,0.008-1.383,0.008-2.095c0-34.249-6.216-54.758-13.882-54.758c-7.667,0-13.882,20.51-13.882,54.758
	c0,0.712,0.002,1.41,0.008,2.095c0.048,6.133-1.581,12.058-3.883,17.743c-0.217,0.536-0.331,1.09-0.331,1.658
	c0,2.796,2.754,5.276,7.016,6.867c2.535,7.915,6.55,9.008,11.071,9.008s8.537-1.093,11.072-9.008
	C271.335,298.4,274.089,295.919,274.089,293.124z"/>
<path style="fill:#CCCE9D;" d="M299.434,262.425c-0.01-0.138-0.01-0.285-0.01-0.422v-22.512c0-4.213,3.408-7.62,7.61-7.62
	c2.105,0,4.014,0.855,5.384,2.225c0.984,0.984,1.699,2.235,2.026,3.626c0.14,0.566,0.209,1.162,0.209,1.769v22.512
	c0,4.213-3.408,7.62-7.619,7.62h-0.002c-0.001,0-0.002,0-0.002,0c-4.064,0-7.381-3.179-7.6-7.193
	C299.43,262.428,299.432,262.426,299.434,262.425 M309.298,221.879c-18.09,0-32.754,14.665-32.754,32.754
	c0,6.891,2.127,13.284,5.763,18.56h0.376v0.011h-0.369c5.908,8.568,15.79,14.183,26.985,14.183c18.09,0,32.754-14.665,32.754-32.754
	C342.052,236.544,327.388,221.879,309.298,221.879"/>
<polyline style="fill:#6BA1A6;" points="282.683,273.193 282.306,273.193 282.314,273.204 282.683,273.204 282.683,273.193 "/>
<path style="fill:#526F74;" d="M307.034,231.871c-4.203,0-7.61,3.408-7.61,7.62v22.512c0,0.138,0,0.284,0.01,0.422
	c8.521-8.76,12.841-18.107,15.006-24.702c0.14,0.566,0.209,1.163,0.209,1.769v22.512c0,4.211-3.405,7.619-7.618,7.62
	c0.001,0,0.002,0,0.002,0c4.213,0,7.62-3.408,7.62-7.62v-22.512c0-0.606-0.07-1.202-0.209-1.769
	c-0.328-1.391-1.043-2.643-2.026-3.626C311.048,232.726,309.139,231.871,307.034,231.871"/>
<path style="fill:#648186;" d="M314.44,237.723c-2.165,6.595-6.485,15.941-15.006,24.702c-0.001,0.001-0.003,0.003-0.006,0.006
	c0.219,4.013,3.536,7.193,7.6,7.193h0.002c4.211-0.001,7.618-3.409,7.618-7.62v-22.512
	C314.648,238.885,314.578,238.289,314.44,237.723"/>
<path style="fill:#CCCE9D;" d="M197.356,262.425c-0.008-0.139-0.011-0.279-0.011-0.419v-22.518c0-4.206,3.41-7.617,7.616-7.617
	s7.617,3.41,7.617,7.617v22.518c0,4.206-3.41,7.617-7.617,7.617c-0.001,0-0.003,0-0.004,0s-0.003,0-0.004,0
	c-4.064,0-7.381-3.179-7.6-7.193C197.353,262.428,197.355,262.426,197.356,262.425 M202.708,221.879
	c-18.09,0-32.754,14.665-32.754,32.754s14.664,32.754,32.754,32.754c11.194,0,21.077-5.616,26.985-14.183h-0.373v-0.011h0.381
	c3.634-5.275,5.763-11.668,5.763-18.56C235.462,236.544,220.798,221.879,202.708,221.879"/>
<polyline style="fill:#657F7E;" points="229.701,273.193 229.32,273.193 229.32,273.204 229.693,273.204 229.701,273.193 "/>
<path style="fill:#526F74;" d="M204.961,231.871c-4.206,0-7.616,3.41-7.616,7.617v22.518c0,0.141,0.003,0.28,0.011,0.419
	c8.521-8.76,12.841-18.107,15.006-24.702c0.139,0.566,0.209,1.163,0.209,1.769v22.512c0,4.21-3.404,7.617-7.615,7.62
	c0.001,0,0.003,0,0.004,0c4.206,0,7.617-3.41,7.617-7.617v-22.518C212.577,235.281,209.168,231.871,204.961,231.871"/>
<path style="fill:#648186;" d="M212.362,237.723c-2.165,6.595-6.485,15.941-15.006,24.702c-0.001,0.001-0.003,0.003-0.004,0.004
	c0.219,4.013,3.536,7.193,7.6,7.193c0.001,0,0.003,0,0.004,0c4.21-0.002,7.615-3.409,7.615-7.62V239.49
	C212.571,238.885,212.501,238.289,212.362,237.723"/>
<path style="fill:#666666;" d="M371.24,206.985l-25.448,39.538c-3.697-16.81-18.698-29.423-36.596-29.423
	c-15.789,0-29.312,9.815-34.83,23.661c-5.13-4.241-11.614-6.617-18.365-6.617c-6.751,0-13.235,2.376-18.365,6.617
	c-5.518-13.846-19.042-23.661-34.83-23.661c-17.898,0-32.899,12.613-36.596,29.423l-25.471-39.56
	c-0.056,1.654-0.089,3.32-0.089,4.996v5.119l24.693,38.361c0.455,20.274,17.077,36.629,37.462,36.629
	c20.663,0,37.473-16.81,37.473-37.484c0-2.72-0.3-5.374-0.844-7.939c4.352-4.43,10.315-6.951,16.566-6.951
	c6.251,0,12.213,2.52,16.566,6.951c-0.555,2.565-0.855,5.218-0.855,7.939c0,20.674,16.821,37.484,37.484,37.484
	c20.385,0,37.007-16.355,37.462-36.629L371.34,217.1v-5.141C371.34,210.294,371.306,208.639,371.24,206.985z M202.806,286.516
	c-17.61,0-31.933-14.323-31.933-31.933s14.323-31.933,31.933-31.933c17.598,0,31.921,14.323,31.921,31.933
	S220.404,286.516,202.806,286.516z M309.196,286.516c-17.61,0-31.933-14.323-31.933-31.933s14.323-31.933,31.933-31.933
	s31.933,14.323,31.933,31.933S326.805,286.516,309.196,286.516z"/>
<path style="fill:#4D4D4D;" d="M297.416,332.599c-0.011,0.111-0.011,0.211-0.022,0.322c-0.044,0.633-0.111,1.266-0.211,1.888
	c-0.078,0.489-0.167,0.966-0.278,1.443c-0.078,0.344-0.167,0.688-0.255,1.033c-0.366,1.321-0.855,2.609-1.466,3.864
	c-1.943,4.064-5.063,7.728-9.071,10.77c-7.572,5.729-18.254,9.304-30.112,9.304c-11.858,0-22.539-3.575-30.112-9.304
	c-4.008-3.042-7.128-6.706-9.071-10.77c-0.611-1.255-1.099-2.543-1.466-3.864c-0.089-0.344-0.178-0.688-0.255-1.033
	c-0.111-0.477-0.2-0.955-0.278-1.443c-0.1-0.622-0.167-1.255-0.211-1.888c-0.011-0.111-0.011-0.211-0.022-0.322
	c1.455,0.289,2.931,0.566,4.441,0.822c11.159,1.932,23.705,3.009,36.973,3.009s25.815-1.077,36.973-3.009
	C294.485,333.165,295.962,332.887,297.416,332.599z"/>
<path style="fill:#F2F2F2;" d="M297.416,332.599c-0.011,0.111-0.011,0.211-0.022,0.322c-0.044,0.633-0.111,1.266-0.211,1.888
	c-0.078,0.489-0.167,0.966-0.278,1.443c-0.078,0.344-0.167,0.688-0.255,1.033c-0.366,1.321-0.855,2.609-1.466,3.864
	c-3.997,0.622-8.161,1.155-12.458,1.577c-8.449,0.844-17.421,1.288-26.725,1.288c-9.304,0-18.276-0.444-26.725-1.288
	c-4.297-0.422-8.461-0.955-12.458-1.577c-0.611-1.255-1.099-2.543-1.466-3.864c-0.089-0.344-0.178-0.688-0.255-1.033
	c-0.111-0.477-0.2-0.955-0.278-1.443c-0.1-0.622-0.167-1.255-0.211-1.888c-0.011-0.111-0.011-0.211-0.022-0.322
	c1.455,0.289,2.931,0.566,4.441,0.822c11.159,1.932,23.705,3.009,36.973,3.009s25.815-1.077,36.973-3.009
	C294.485,333.165,295.962,332.887,297.416,332.599z"/>
<path style="fill:#FFFFFF;" d="M292.975,333.42c-1.81,2.587-4.13,4.952-6.862,7.028c-1.066,0.811-2.198,1.577-3.386,2.276
	c-8.449,0.844-17.421,1.288-26.725,1.288c-9.304,0-18.276-0.444-26.725-1.288c-1.188-0.699-2.321-1.466-3.386-2.276
	c-2.731-2.076-5.052-4.441-6.862-7.028c11.159,1.932,23.705,3.009,36.973,3.009S281.816,335.352,292.975,333.42z"/>
<path style="fill:#EFC881;" d="M277.763,368.407c0-4.541-9.743,0.484-21.763,0.484c-12.02,0-21.763-5.024-21.763-0.484
	c0,4.54,9.743,8.222,21.763,8.222C268.02,376.629,277.763,372.949,277.763,368.407z"/>
<g>
</g>
<g>
</g>
<g>
</g>
<g>
</g>
<g>
</g>
<g>
</g>
<g>
</g>
<g>
</g>
<g>
</g>
<g>
</g>
<g>
</g>
<g>
</g>
<g>
</g>
<g>
</g>
<g>
</g>
</svg>
