<?xml version="1.0" standalone="no"?>
<!DOCTYPE svg PUBLIC "-//W3C//DTD SVG 20010904//EN"
 "http://www.w3.org/TR/2001/REC-SVG-20010904/DTD/svg10.dtd">
<svg version="1.0" xmlns="http://www.w3.org/2000/svg"
 width="512.000000pt" height="512.000000pt" viewBox="0 0 512.000000 512.000000"
 preserveAspectRatio="xMidYMid meet">
<metadata>
Created by potrace 1.11, written by Peter Selinger 2001-2013
</metadata>
<g transform="translate(0.000000,512.000000) scale(0.100000,-0.100000)"
fill="#000000" stroke="none">
<path d="M2375 4954 c-22 -20 -56 -48 -75 -62 -19 -15 -39 -32 -45 -38 -5 -6
-119 -102 -252 -214 -134 -111 -243 -204 -243 -206 0 -4 81 -1 330 12 41 2
311 6 598 8 l524 4 111 -55 c137 -69 230 -154 277 -255 41 -89 45 -113 44
-293 0 -133 -4 -174 -23 -245 -27 -103 -84 -226 -147 -322 -42 -63 -182 -214
-244 -264 -75 -59 -256 -181 -325 -218 -77 -42 -156 -104 -170 -133 -43 -91
63 -320 329 -711 61 -90 116 -171 121 -180 6 -9 12 -19 15 -22 6 -5 67 -91
157 -220 106 -151 290 -426 313 -468 13 -23 28 -42 34 -42 6 0 27 15 46 33 19
17 56 49 82 70 26 21 53 43 60 50 7 7 33 28 58 48 25 20 56 47 70 59 14 12
141 119 283 238 l258 215 -5 116 c-18 364 -25 521 -31 636 -5 107 -15 308 -20
430 -3 55 -7 145 -10 200 -2 55 -7 154 -10 220 -3 66 -7 156 -9 200 -2 44 -7
148 -11 230 -4 83 -8 175 -10 205 -2 30 -5 85 -6 122 l-1 67 -52 20 c-28 11
-152 61 -276 111 -124 50 -351 142 -505 205 -154 62 -481 194 -728 294 -246
100 -453 184 -460 186 -6 3 -30 -11 -52 -31z"/>
<path d="M1401 4112 c-27 -3 -68 -31 -185 -129 -83 -70 -153 -129 -156 -132
-3 -4 -30 -26 -60 -51 -65 -54 -66 -54 -205 -170 -60 -51 -124 -104 -140 -119
-17 -14 -52 -43 -77 -64 -71 -57 -77 -64 -73 -94 2 -16 7 -91 10 -168 3 -77 7
-180 10 -230 2 -49 7 -139 9 -200 3 -60 8 -162 11 -225 3 -63 7 -158 10 -210
2 -52 7 -151 10 -220 3 -69 8 -165 10 -215 3 -49 7 -142 10 -205 3 -63 7 -158
10 -210 3 -52 7 -151 10 -220 9 -207 15 -284 23 -291 4 -3 167 -70 362 -149
442 -178 899 -363 1270 -513 157 -63 308 -125 337 -136 l52 -20 44 37 c54 46
81 68 402 337 395 331 415 348 415 351 0 2 -9 1 -20 -1 -72 -14 -173 74 -270
234 -47 77 -264 387 -390 556 -177 238 -516 727 -543 785 -4 8 -34 57 -66 109
l-59 95 2 77 c1 48 7 84 16 94 29 36 96 59 257 91 86 17 311 119 418 189 122
80 227 208 292 357 l29 67 -1 214 c-2 188 -4 217 -20 245 -59 99 -173 124
-580 125 -176 1 -263 -13 -361 -58 -112 -51 -137 -96 -159 -290 -3 -22 -8 -60
-11 -85 -3 -25 -8 -61 -10 -80 -2 -19 -6 -55 -10 -80 -3 -25 -7 -56 -9 -70 -1
-14 -5 -43 -8 -65 -4 -22 -9 -69 -13 -105 -3 -36 -7 -72 -9 -80 -1 -8 -6 -42
-10 -75 -4 -33 -9 -71 -11 -85 -2 -14 -6 -50 -9 -80 -4 -30 -8 -67 -11 -81 -2
-15 -6 -47 -9 -70 -3 -24 -7 -60 -10 -79 -3 -19 -7 -55 -10 -80 -5 -45 -11
-94 -20 -160 -2 -19 -7 -60 -11 -90 -3 -30 -13 -75 -21 -99 -8 -24 -17 -53
-19 -65 -10 -45 -33 -183 -39 -231 -3 -27 -7 -66 -10 -85 -10 -84 -16 -187
-20 -347 -8 -329 16 -364 258 -368 128 -2 131 -3 154 -29 23 -27 28 -50 24
-119 -3 -55 -17 -84 -49 -101 -23 -12 -180 -46 -281 -61 -34 -5 -443 -73 -501
-83 -73 -13 -104 0 -128 55 -26 61 -21 100 27 179 35 58 60 131 76 224 3 19
12 67 20 105 15 75 50 281 60 355 3 25 8 56 10 70 4 24 20 148 31 235 2 22 7
51 9 65 2 14 7 54 11 90 3 36 7 72 9 80 2 8 6 44 10 80 4 36 8 72 10 80 2 9 6
45 9 80 4 36 9 79 11 95 2 17 7 64 10 105 4 41 8 77 10 80 2 3 6 48 10 100 4
52 8 101 10 110 1 8 6 53 10 100 3 47 8 101 10 120 7 73 20 233 30 390 3 47 8
108 11 135 10 112 8 290 -5 313 -25 47 -132 75 -240 64z"/>
</g>
</svg>
