<?xml version="1.0" standalone="no"?>
<!DOCTYPE svg PUBLIC "-//W3C//DTD SVG 20010904//EN"
 "http://www.w3.org/TR/2001/REC-SVG-20010904/DTD/svg10.dtd">
<svg version="1.0" xmlns="http://www.w3.org/2000/svg"
 width="512.000000pt" height="512.000000pt" viewBox="0 0 512.000000 512.000000"
 preserveAspectRatio="xMidYMid meet">
<metadata>
Created by potrace 1.11, written by Peter Selinger 2001-2013
</metadata>
<g transform="translate(0.000000,512.000000) scale(0.100000,-0.100000)"
fill="#000000" stroke="none">
<path d="M1895 5113 c-241 -53 -428 -212 -501 -428 -9 -27 -17 -55 -18 -62 -4
-22 -15 -26 -43 -15 -27 11 -51 17 -118 28 -16 3 -58 5 -91 6 -413 4 -747
-349 -721 -762 4 -52 13 -116 21 -142 l15 -47 -43 -38 c-205 -185 -286 -484
-202 -748 25 -80 106 -223 145 -259 l20 -19 -40 -46 c-168 -190 -206 -471 -94
-697 19 -39 53 -93 75 -121 39 -50 40 -52 30 -99 -15 -81 -5 -288 20 -374 92
-323 330 -548 665 -630 39 -9 41 -11 57 -75 64 -242 259 -453 498 -537 193
-68 417 -59 600 24 134 61 268 179 343 300 23 37 44 68 47 68 3 0 21 -26 40
-57 114 -189 327 -336 539 -370 86 -14 252 -9 331 11 280 71 503 287 576 557
10 35 18 65 19 67 1 1 40 13 86 26 323 88 562 342 632 671 15 68 17 288 3 344
-4 17 3 35 27 65 17 23 34 43 37 46 13 13 63 115 81 167 29 86 36 231 15 327
-22 95 -81 215 -139 280 l-43 50 49 65 c100 131 146 271 145 439 -1 196 -76
373 -215 506 l-59 57 17 66 c39 155 15 348 -60 493 -113 216 -323 361 -559
387 -37 4 -76 7 -87 6 -53 -1 -135 -14 -180 -28 -27 -8 -53 -15 -56 -15 -3 0
-16 30 -28 68 -66 202 -216 353 -421 423 -83 28 -237 35 -330 14 -107 -24
-224 -90 -305 -170 -39 -38 -80 -85 -90 -102 -11 -18 -23 -33 -27 -33 -4 0
-15 14 -24 32 -26 50 -154 170 -219 205 -106 55 -179 75 -295 78 -58 1 -114 1
-125 -2z m219 -168 c130 -34 245 -123 305 -234 59 -110 59 -118 60 -678 l1
-513 -120 0 -120 0 0 54 c0 65 -20 94 -70 102 -28 5 -40 1 -63 -20 -23 -21
-27 -33 -27 -81 l0 -55 -98 0 c-122 0 -176 -17 -231 -72 -54 -55 -71 -109 -71
-230 l0 -98 -55 0 c-67 0 -105 -29 -105 -80 0 -51 38 -80 105 -80 l55 0 0
-120 0 -120 -55 0 c-67 0 -105 -29 -105 -80 0 -51 38 -80 105 -80 l55 0 0
-120 0 -120 -54 0 c-65 0 -106 -30 -106 -80 0 -51 38 -80 103 -80 l55 0 4
-117 c6 -130 13 -153 74 -215 48 -49 111 -68 231 -68 l93 0 0 -55 c0 -67 29
-105 80 -105 51 0 80 38 80 105 l0 55 120 0 120 0 0 -518 c-1 -582 -1 -588
-72 -731 -31 -62 -60 -102 -113 -155 -132 -131 -263 -188 -435 -190 -58 -1
-121 2 -140 5 -117 22 -241 89 -329 179 -77 78 -122 150 -159 252 -22 63 -26
90 -26 193 -1 100 3 132 22 190 66 198 212 351 398 416 82 29 118 36 202 38
59 1 96 40 88 91 -9 59 -37 73 -131 66 -319 -23 -589 -229 -698 -532 -24 -69
-39 -139 -42 -204 -2 -32 -4 -35 -30 -32 -16 2 -56 14 -88 28 -464 188 -594
785 -252 1155 46 50 55 94 25 132 -17 21 -30 27 -60 27 -33 0 -44 -7 -84 -51
-47 -52 -109 -140 -135 -191 -8 -16 -18 -28 -21 -28 -12 0 -59 112 -71 170
-14 67 -6 185 17 247 10 26 32 71 49 98 32 50 111 135 126 135 12 0 39 56 39
81 0 13 -18 39 -43 63 -135 130 -194 261 -195 430 0 134 49 267 137 365 l46
52 58 -70 c124 -153 318 -254 512 -267 64 -4 100 10 115 47 27 64 -11 106
-101 114 -220 19 -392 138 -480 332 -163 360 108 783 501 784 86 0 113 -5 189
-31 60 -22 71 -32 71 -71 0 -77 79 -244 150 -320 55 -59 94 -65 137 -23 34 34
27 81 -21 134 -165 183 -149 481 36 657 119 112 290 158 442 118z m1163 -13
c82 -31 134 -65 190 -124 84 -89 123 -181 129 -304 6 -130 -30 -237 -115 -339
-48 -58 -53 -94 -16 -130 41 -41 80 -34 136 25 81 86 142 225 158 362 3 21
181 64 256 61 231 -7 427 -150 512 -372 44 -114 40 -287 -10 -404 -29 -68 -98
-161 -155 -210 -90 -77 -192 -118 -327 -132 -70 -8 -102 -25 -111 -62 -8 -31
21 -92 45 -94 140 -12 290 26 416 106 59 37 135 107 181 166 l47 59 24 -22
c14 -13 44 -52 68 -88 107 -162 124 -363 44 -539 -30 -66 -63 -111 -144 -195
-43 -44 -46 -51 -40 -83 6 -31 20 -48 90 -108 34 -29 89 -110 112 -166 23 -56
26 -78 27 -179 0 -110 -2 -118 -33 -187 -19 -40 -37 -73 -40 -73 -4 0 -20 24
-35 53 -33 60 -73 114 -130 174 -34 36 -47 43 -78 43 -64 0 -103 -80 -60 -126
142 -153 208 -300 219 -485 19 -322 -181 -617 -486 -719 -35 -11 -65 -19 -67
-17 -2 1 -6 28 -9 58 -19 170 -98 342 -216 470 -70 76 -231 181 -309 203 -14
3 -50 13 -80 21 -30 9 -92 18 -137 21 -80 6 -82 6 -107 -21 -52 -56 -15 -134
63 -136 173 -4 317 -66 441 -189 75 -76 121 -149 158 -252 22 -64 26 -89 26
-198 0 -110 -3 -134 -26 -198 -37 -104 -83 -176 -159 -252 -76 -75 -148 -121
-251 -158 -60 -21 -93 -26 -182 -27 -99 -2 -198 12 -231 33 -5 4 -16 7 -22 8
-35 6 -152 83 -207 138 -56 55 -144 184 -150 218 -1 7 -5 18 -9 24 -3 6 -13
40 -21 74 -12 50 -15 165 -16 581 l-1 519 121 0 120 0 0 -55 c0 -67 29 -105
80 -105 51 0 80 38 80 105 l0 55 98 1 c53 0 104 2 112 4 67 13 141 73 167 135
21 48 21 51 22 163 l1 97 55 0 c46 0 60 4 80 25 24 24 31 57 19 90 -10 25 -58
45 -109 45 l-45 0 0 120 0 120 55 0 c46 0 60 4 80 25 24 24 31 57 19 90 -10
25 -58 45 -109 45 l-45 0 0 120 0 120 55 0 c46 0 60 4 80 25 30 29 33 73 6
106 -14 18 -31 23 -80 27 l-61 4 -1 97 c0 53 -2 104 -4 114 -14 72 -86 151
-159 172 -28 9 -89 15 -142 15 l-92 0 -4 60 c-5 69 -19 88 -71 97 -30 5 -40 1
-61 -22 -21 -23 -26 -38 -26 -81 l0 -54 -120 0 -120 0 0 513 c1 487 2 516 21
581 49 162 177 287 339 330 76 20 210 14 277 -12z m-16 -1601 c19 -23 19 -44
17 -698 l-3 -674 -25 -19 c-24 -19 -50 -20 -691 -20 -642 0 -668 1 -690 19
l-24 19 -3 676 -2 677 26 24 27 25 675 -2 674 -3 19 -24z"/>
<path d="M1945 3254 l-25 -27 0 -589 0 -589 26 -24 27 -25 589 0 589 0 24 26
25 27 0 587 0 587 -25 27 -24 26 -591 0 -591 0 -24 -26z m1095 -614 l0 -480
-480 0 -480 0 0 480 0 480 480 0 480 0 0 -480z"/>
<path d="M2266 2775 c-14 -13 -26 -33 -26 -45 0 -29 26 -76 45 -84 9 -3 135
-6 279 -6 l263 0 27 25 c14 13 26 33 26 45 0 29 -26 76 -45 84 -9 3 -135 6
-279 6 l-263 0 -27 -25z"/>
<path d="M2426 2535 c-29 -27 -33 -53 -11 -94 19 -38 30 -41 151 -41 102 0
106 1 130 27 21 23 25 35 20 63 -9 59 -33 70 -156 70 -100 0 -109 -2 -134 -25z"/>
</g>
</svg>
