<?xml version="1.0" standalone="no"?>
<!DOCTYPE svg PUBLIC "-//W3C//DTD SVG 20010904//EN"
 "http://www.w3.org/TR/2001/REC-SVG-20010904/DTD/svg10.dtd">
<svg version="1.0" xmlns="http://www.w3.org/2000/svg"
 width="512.000000pt" height="512.000000pt" viewBox="0 0 512.000000 512.000000"
 preserveAspectRatio="xMidYMid meet">
<metadata>
Created by potrace 1.11, written by Peter Selinger 2001-2013
</metadata>
<g transform="translate(0.000000,512.000000) scale(0.100000,-0.100000)"
fill="#000000" stroke="none">
<path d="M2450 4589 c-253 -26 -466 -101 -569 -201 -91 -88 -119 -217 -73
-336 l21 -54 -26 7 c-49 12 -217 6 -271 -10 -73 -22 -125 -75 -142 -146 -15
-60 -8 -553 10 -781 l10 -126 121 -187 c101 -156 122 -195 129 -242 36 -219
259 -360 471 -297 116 35 221 137 254 248 8 27 15 82 15 121 0 81 6 91 78 118
54 21 110 21 164 0 72 -27 78 -37 78 -118 0 -39 7 -94 15 -121 33 -111 138
-213 254 -248 212 -63 435 78 471 297 7 45 29 86 129 243 67 103 121 197 121
209 0 12 24 58 54 103 131 200 166 436 101 681 -102 380 -368 654 -750 774
-210 66 -440 89 -665 66z m-201 -1179 c88 -59 192 -106 290 -131 71 -18 104
-20 205 -16 134 5 206 21 481 107 146 45 182 53 255 54 86 0 147 -19 177 -56
13 -16 39 -144 48 -245 l8 -72 -123 -191 c-67 -104 -125 -190 -129 -190 -3 0
-17 26 -31 58 -33 78 -119 163 -197 193 -87 34 -208 33 -285 -3 -81 -38 -120
-70 -164 -136 -21 -31 -39 -58 -40 -60 -1 -2 -26 9 -56 25 -44 23 -65 27 -128
27 -63 0 -84 -4 -128 -27 -30 -16 -55 -27 -56 -25 -1 2 -19 29 -40 60 -44 66
-83 98 -164 136 -77 36 -198 37 -285 3 -78 -30 -164 -115 -197 -193 -14 -32
-28 -58 -31 -58 -8 0 -219 327 -219 339 0 4 44 35 98 69 273 170 477 366 498
478 l6 34 73 -69 c40 -38 100 -87 134 -111z m-85 -551 c96 -47 158 -131 174
-233 17 -108 -15 -205 -94 -282 -122 -118 -333 -111 -448 16 -60 67 -81 122
-81 215 0 67 5 89 28 137 34 69 100 130 171 158 71 28 182 23 250 -11z m1040
11 c72 -28 139 -88 173 -158 23 -48 28 -70 28 -137 0 -93 -21 -148 -81 -215
-83 -92 -227 -125 -346 -80 -139 52 -223 202 -196 350 17 93 64 162 145 213
81 51 185 61 277 27z"/>
<path d="M1975 3185 c-5 -2 -22 -6 -38 -9 -41 -10 -105 -72 -119 -117 -6 -22
-9 -42 -6 -45 3 -3 22 6 42 20 80 54 202 54 282 0 20 -14 39 -23 41 -20 9 9
-19 77 -44 107 -14 16 -37 36 -52 43 -28 14 -90 26 -106 21z"/>
<path d="M3105 3185 c-5 -2 -22 -6 -37 -9 -42 -9 -95 -61 -114 -112 -9 -24
-15 -47 -12 -50 3 -3 22 6 42 20 80 54 202 54 282 0 20 -14 38 -23 41 -20 3 2
2 19 -2 36 -8 36 -56 95 -94 114 -28 14 -90 26 -106 21z"/>
<path d="M1999 2781 c-23 -18 -24 -26 -27 -160 l-4 -141 31 -31 c26 -25 37
-30 59 -24 58 14 67 34 70 166 2 67 1 132 -2 145 -15 60 -81 83 -127 45z"/>
<path d="M3020 2780 c-28 -28 -32 -54 -28 -189 3 -108 5 -123 25 -142 31 -32
80 -30 110 5 22 26 23 35 23 162 0 130 -1 136 -25 159 -30 31 -77 33 -105 5z"/>
<path d="M2187 1680 c58 -102 208 -170 373 -170 118 0 199 23 288 83 37 24
108 105 100 113 -2 1 -52 -4 -113 -12 -180 -22 -462 -17 -633 12 l-34 5 19
-31z"/>
<path d="M1795 1156 c-305 -111 -566 -272 -809 -498 l-70 -64 80 -61 c274
-209 599 -368 919 -449 695 -178 1423 -63 2020 319 99 63 265 187 265 198 0
11 -155 150 -241 215 -169 129 -369 241 -574 322 -153 61 -139 61 -165 -5 -55
-137 -168 -271 -292 -345 -381 -227 -855 -71 -1025 339 -15 36 -18 53 -10 57
7 2 8 5 2 5 -5 0 -50 -15 -100 -33z"/>
</g>
</svg>
